<svg id="圖層_1" data-name="圖層 1" xmlns="http://www.w3.org/2000/svg" viewBox="0 0 60 52"><defs><style>.cls-1{fill:#f7f7f7;}.cls-2{fill:#1e1e1e;}</style></defs><title>bt_share_line</title><rect class="cls-1" width="60" height="52"/><path class="cls-2" d="M30,15.88c-6.6,0-12,4.36-12,9.71,0,4.8,4.26,8.82,10,9.58.39.09.92.26,1.06.58a2.3,2.3,0,0,1,0,1.08s-.14.84-.17,1-.24,1.18,1,.65a38.33,38.33,0,0,0,9.4-6.94,8.66,8.66,0,0,0,2.56-6C42,20.24,36.6,15.88,30,15.88ZM25.78,28.47a.23.23,0,0,1-.24.24H22.19a.17.17,0,0,1-.15-.07.31.31,0,0,1-.07-.15V23.25h0A.22.22,0,0,1,22.2,23H23a.23.23,0,0,1,.24.24v4.14h2.27a.23.23,0,0,1,.24.24S25.78,28.47,25.78,28.47Zm2,0a.23.23,0,0,1-.24.24h-.84a.23.23,0,0,1-.24-.24V23.25h0a.21.21,0,0,1,.24-.22h.84a.23.23,0,0,1,.24.24Zm5.76,0a.23.23,0,0,1-.24.24h-.94l0,0s-.05,0-.05-.05l-2.39-3.23v3.09a.23.23,0,0,1-.24.24h-.84a.23.23,0,0,1-.24-.24V23.25a.24.24,0,0,1,.24-.19h1l0,0,0,0,0,0,2.38,3.23V23.25h0a.23.23,0,0,1,.24-.24h.82a.23.23,0,0,1,.24.24S33.57,28.43,33.57,28.43Zm4.65-2.17a.23.23,0,0,1-.24.24H35.71v.89H38a.23.23,0,0,1,.24.24v.84a.23.23,0,0,1-.24.24H34.63a.17.17,0,0,1-.15-.07.31.31,0,0,1-.07-.15V23.25a.17.17,0,0,1,.07-.15.31.31,0,0,1,.15-.07H38a.23.23,0,0,1,.24.24v.84a.23.23,0,0,1-.24.24H35.71v.89H38a.23.23,0,0,1,.24.24Z" transform="translate(0 0)"/></svg>