<?xml version="1.0" encoding="utf-8"?>
<!-- Generator: Adobe Illustrator 21.1.0, SVG Export Plug-In . SVG Version: 6.00 Build 0)  -->
<svg version="1.1" id="_x35_1d4abee-92ac-4a2c-80e7-9d72afc11533"
	 xmlns="http://www.w3.org/2000/svg" xmlns:xlink="http://www.w3.org/1999/xlink" x="0px" y="0px" viewBox="0 0 143.3 143.3"
	 style="enable-background:new 0 0 143.3 143.3;" xml:space="preserve">
<style type="text/css">
	.st0{fill:#5FC93D;}
</style>
<title>SNS</title>
<path class="st0" d="M71.6,4.9c-38.6,0-70,25.5-70,56.8c0,28.1,24.9,51.6,58.5,56c2.3,0.5,5.4,1.5,6.2,3.4c0.7,1.8,0.5,4.5,0.2,6.3
	c0,0-0.8,4.9-1,6c-0.3,1.8-1.4,6.9,6.1,3.8s40.3-23.7,55-40.6c10.1-11.1,15-22.4,15-34.9C141.6,30.4,110.2,4.9,71.6,4.9z M46.9,78.5
	c0,0.8-0.6,1.4-1.4,1.4H25.9c-0.4,0-0.7-0.1-0.9-0.4c-0.2-0.3-0.4-0.6-0.4-0.9V48l0,0c0-0.8,0.6-1.3,1.4-1.3h4.9
	c0.8,0,1.4,0.6,1.4,1.4v24.2h13.3c0.8,0,1.4,0.6,1.4,1.4C46.9,73.6,46.9,78.5,46.9,78.5z M58.8,78.5c0,0.8-0.6,1.4-1.4,1.4h-4.9
	c-0.8,0-1.4-0.6-1.4-1.4V48l0,0c0-0.8,0.6-1.4,1.4-1.3h4.9l0,0c0.8,0,1.4,0.6,1.4,1.4V78.5z M92.5,78.3c0,0.8-0.6,1.4-1.4,1.4h-4.9
	c-0.1,0-0.2,0-0.3,0h-0.1h-0.1h-0.1l-0.1-0.1c-0.1-0.1-0.3-0.2-0.3-0.3l-14-18.9v18.1c0,0.8-0.6,1.4-1.4,1.4h-4.9
	c-0.8,0-1.4-0.6-1.4-1.4V48c0.1-0.6,0.7-1.1,1.4-1.1h5.4h0.1h0.1h0.1h0.1h0.1l0.1,0.1l0.1,0.1l0.1,0.1L85,66.1V48l0,0
	c0-0.8,0.6-1.4,1.4-1.4h4.9h-0.1c0.8,0,1.4,0.6,1.4,1.4C92.5,48,92.5,78.3,92.5,78.3z M119.7,65.6c0,0.8-0.6,1.4-1.4,1.4H105v5.2
	h13.3c0.8,0,1.4,0.6,1.4,1.4v4.9c0,0.8-0.6,1.4-1.4,1.4H98.7c-0.4,0-0.7-0.1-0.9-0.4c-0.2-0.3-0.4-0.6-0.4-0.9V48
	c0-0.4,0.1-0.7,0.4-0.9s0.6-0.4,0.9-0.4h19.6c0.8,0,1.4,0.6,1.4,1.4V53c0,0.8-0.6,1.4-1.4,1.4H105v5.2h13.3c0.8,0,1.4,0.6,1.4,1.4
	C119.7,61,119.7,65.6,119.7,65.6z"/>
</svg>
